<?xml version="1.0" encoding="UTF-8" standalone="no"?><!DOCTYPE svg PUBLIC "-//W3C//DTD SVG 1.1//EN" "http://www.w3.org/Graphics/SVG/1.1/DTD/svg11.dtd"><svg width="100%" height="100%" viewBox="0 0 2500 2500" version="1.1" xmlns="http://www.w3.org/2000/svg" xmlns:xlink="http://www.w3.org/1999/xlink" xml:space="preserve" xmlns:serif="http://www.serif.com/" style="fill-rule:evenodd;clip-rule:evenodd;stroke-linejoin:round;stroke-miterlimit:2;"><g id="Background"><path d="M93.254,1782.774c-24.279,0.008 -54.446,2.919 -55.047,-6.431c-0.078,-1.214 124.332,-627.808 135.171,-682.394c4.821,-24.283 12.569,-18.951 32.077,-18.964c25.492,-0.016 63.248,-4.712 60.418,10.299c-12.738,67.565 -15.197,69.601 -10.979,70.873c3.426,1.033 35.864,-46.285 86.075,-74.042c269.564,-149.019 266.545,270.016 114.026,359.905c-59.892,35.298 144.995,-1.323 175.807,-30.459c7.35,-6.95 2.063,-8.101 -5.742,-35.351c-25.525,-89.114 6.607,-210.156 83.428,-277.204c159.738,-139.415 382.878,49.824 177.397,235.528c-98.439,88.964 -105.063,80.552 -113.082,88.798c-16.94,17.42 145.646,74.125 316.823,-91.35c39.941,-38.611 40.749,-41.951 34.779,-53.335c-8.055,-15.361 -80.372,-153.266 -97.961,-193.419c-6.009,-13.717 17.218,-10.362 76.616,-10.24c19.282,0.04 14.808,9.358 82.853,139.155c7.062,13.472 12.957,4.216 20.288,-3.448c127.326,-133.101 127.215,-135.456 139.18,-135.599c7.948,-0.095 89.638,-1.074 99.362,-0.337c15.012,1.137 -26.985,35.897 -87.811,102.758c-12.591,13.84 -117.881,121.506 -118.745,127.598c-1.448,10.2 51.892,91.911 59.578,101.794c59.937,77.064 156.998,16.288 161.141,11.2c3.472,-4.263 -29.841,-80.119 -16.142,-153.705c42.952,-230.723 270.221,-265.181 331.65,-146.921c67.108,129.192 -96.142,244.551 -97.227,245.491c-65.904,57.106 -93.66,61.485 -75.206,70.803c76.421,38.589 140.448,-11.312 182.19,-49.157c76.89,-69.711 65.414,-81.408 67.819,-93.181c34.222,-167.516 165.768,-396.005 226.894,-483.177c125.199,-178.544 242.421,-83.41 210.049,57.16c-51.698,224.491 -292.357,441.162 -350.504,498.546c-19.966,19.704 9.983,73.707 40.044,79.093c115.72,20.732 250.212,-251.229 324.433,-361.339c5.949,-8.826 22.548,-6.852 79.248,-6.74c21.432,0.042 10.316,11.982 11.402,55.091c2.058,81.702 92.587,179.793 60.762,287.25c-43.366,146.423 -203.678,125.236 -251.105,79.997c-4.408,-4.205 -5.912,-8.327 44.799,-61.574c9.488,-9.962 23.177,21.916 62.311,17.313c121.425,-14.283 42.761,-193.409 20.546,-245.841c-9.536,-22.508 -11.554,4.119 -44.472,65.571c-123.857,231.213 -268.948,283.034 -348.462,251.832c-85.535,-33.564 -65.373,-100.904 -95.622,-72.878c-113.755,105.395 -235.758,92.46 -307.128,44.325c-24.888,-16.786 -26.949,-7.555 -42.338,0.662c-230.447,123.057 -311.136,-118.612 -317.507,-120.677c-11.813,-3.829 -9.603,3.184 -28.017,22.639c-110.02,116.244 -312.061,188.338 -454.272,83.55c-14.144,-10.422 -31.09,17.146 -119.387,39.01c-139.343,34.504 -273.499,-20.093 -313.91,-55.214c-4.288,-3.727 -11.095,-9.643 5.125,-70.827c3.988,-15.043 9.578,-3.216 26.325,2.651c111.071,38.913 178.46,-75.093 183.581,-146.695c10.354,-144.761 -117.603,-138.674 -213.271,-7.439c-65.267,89.532 -89.176,350.012 -132.304,532.552c-2.514,10.639 -7.073,5.441 -35.958,6.497Zm758.32,-527.268c3.768,-5.027 8.407,-9.361 12.176,-14.388c43.886,-58.548 6.394,-121.449 -43.141,-109.737c-112.162,26.52 -123.594,199.387 -99.6,223.568c8.405,8.471 87.413,-54.232 130.566,-99.444Zm789.676,31.143c125.256,-107.626 41.676,-175.63 -16.706,-150.174c-103.17,44.986 -101.492,210.245 -80.61,220.607c10.398,5.16 90.064,-64.127 97.315,-70.433Zm530.266,-452.612c-1.724,2.218 -70.385,72.933 -201.284,363.442c-13.574,30.126 12.872,-2.453 13.577,-3.321c4.475,-5.513 182.474,-184.685 218.83,-351.403c8.558,-39.244 -0.979,-40.042 -3.418,-38.182c-2.573,1.962 -2.05,2.18 -27.706,29.464Z" style="fill:#fff;"/></g></svg>